<svg width="21" height="23" viewBox="0 0 21 23" fill="none" xmlns="http://www.w3.org/2000/svg">
<path fill-rule="evenodd" clip-rule="evenodd" d="M9.83255 1.1567C9.83236 1.1568 9.83273 1.15661 9.83255 1.1567L1.83366 5.15615L1.83255 5.1567C1.32288 5.40996 1.00045 5.92983 1.00005 6.49894V16.0224C0.996083 16.5923 1.31541 17.1152 1.82416 17.372C1.82387 17.3718 1.82445 17.3721 1.82416 17.372L9.82366 21.3717C10.2462 21.5832 10.7438 21.5832 11.1663 21.3718L19.1664 17.3717L19.1675 17.3712C19.6773 17.1179 19.9997 16.5979 20 16.0287V6.4992C19.9997 5.93 19.6773 5.41 19.1675 5.1567L19.1664 5.15615L11.1675 1.1567C11.1674 1.15661 11.1677 1.1568 11.1675 1.1567C10.7474 0.948139 10.2527 0.948134 9.83255 1.1567ZM9.38755 0.261174C10.0883 -0.0870579 10.9118 -0.0870579 11.6125 0.261174L11.6137 0.261724L19.6125 4.26117C19.6124 4.26109 19.6127 4.26125 19.6125 4.26117C20.4618 4.68342 20.9995 5.55017 21 6.49867V16.0289C20.9995 16.9774 20.4624 17.8441 19.6132 18.2664C19.613 18.2665 19.6134 18.2663 19.6132 18.2664L11.6138 22.2661C11.6138 22.2661 11.6138 22.2661 11.6138 22.2661C10.9097 22.6184 10.0806 22.6184 9.37644 22.2662C9.37639 22.2661 9.37649 22.2662 9.37644 22.2662L1.37644 18.2662L1.37506 18.2655C0.526848 17.8381 -0.00586729 16.967 4.87713e-05 16.0173V6.49894C0.000552073 5.55048 0.537723 4.68375 1.38695 4.26147C1.38675 4.26157 1.38715 4.26137 1.38695 4.26147L9.38644 0.261725L9.38755 0.261174Z" fill="#414141"/>
</svg>
